<svg width="48" height="48" viewBox="0 0 48 48" fill="none" xmlns="http://www.w3.org/2000/svg">
<rect width="48" height="48" rx="12" fill="#F8E71E"/>
<mask id="mask0" mask-type="alpha" maskUnits="userSpaceOnUse" x="5" y="12" width="27" height="23">
<path fill-rule="evenodd" clip-rule="evenodd" d="M5.77148 12.8188H31.2609V34.7371H5.77148V12.8188Z" fill="white"/>
</mask>
<g mask="url(#mask0)">
<path fill-rule="evenodd" clip-rule="evenodd" d="M12.8349 21.0836C12.9887 20.3138 13.4036 20.0214 14.1423 19.8551C18.9495 18.7737 23.7481 17.6519 28.5433 16.516C30.4497 16.0643 31.368 14.7706 31.251 12.8188C30.183 13.5166 28.9663 13.811 27.7747 14.1565C22.5383 15.6754 17.0592 16.3167 11.9301 18.1672C9.54256 19.0285 7.90349 19.6591 6.44757 22.0618C5.9062 22.9553 5.61702 23.9284 5.85623 24.9853C5.97643 25.5161 6.28862 25.8772 6.89668 25.7691C7.5555 25.6521 7.41288 25.2431 7.3096 24.7522C7.02416 23.3958 7.61038 22.2004 8.86427 21.4793C9.61397 21.0481 10.427 20.7785 11.5739 20.4969C10.0971 21.7139 10.2307 23.2932 9.82013 24.6727C9.71646 25.0214 9.80046 25.5147 9.3122 25.6225C8.09687 25.8909 8.23713 26.8875 8.07012 27.8594C8.50467 27.73 8.74408 27.3009 9.22486 27.489C9.0368 28.4434 8.83673 29.4016 8.66146 30.3643C8.49798 31.263 8.27608 32.1597 8.40867 33.0863C8.56998 34.2123 9.3844 34.8988 10.3243 34.7043C10.6003 34.6472 10.9383 34.5653 10.8321 34.1887C10.2053 31.9664 11.0426 29.8739 11.3347 27.7302C11.4427 26.9366 11.7547 26.4587 12.5597 26.2892C13.7868 26.0305 14.3238 25.1712 14.4004 23.8032C13.6153 24.2554 12.8852 24.5258 11.9589 24.79C12.278 23.4591 12.5958 22.2795 12.8349 21.0836" fill="#7600FF"/>
</g>
<path fill-rule="evenodd" clip-rule="evenodd" d="M24.4648 21.5212C24.1197 22.7663 23.7041 23.9846 23.0513 25.1037C22.95 25.2775 22.8494 25.525 22.5962 25.4841C22.2929 25.4352 22.3654 24.9728 22.3748 24.9155C22.3841 24.8585 22.9991 22.312 23.7948 21.1788C23.9268 20.9906 24.1111 20.7111 24.3916 20.8529C24.6842 21.0006 24.5285 21.2921 24.4648 21.5212M18.4231 23.2244C18.0779 24.4694 17.6623 25.6877 17.0095 26.8069C16.9082 26.9806 16.8076 27.2279 16.5544 27.1872C16.2512 27.1383 16.3266 26.6567 16.333 26.6186C16.3429 26.5583 16.9573 24.0151 17.753 22.8819C17.885 22.6935 18.0693 22.4142 18.3498 22.5558C18.6424 22.7037 18.4867 22.995 18.4231 23.2244M28.8102 19.2558C28.3683 20.3662 28.05 21.0698 27.4161 22.0812C27.1225 22.5499 26.8447 22.9882 26.4496 23.5105C26.1514 23.8856 25.8153 24.2412 25.4581 24.5867C25.5115 23.084 25.8919 21.674 26.3986 20.2984C26.5534 19.8779 26.5504 19.4471 26.0539 19.6194C24.8374 20.0415 23.3947 19.9054 22.4833 21.1443C21.8784 21.9663 20.9413 24.051 20.7673 24.7222C20.664 25.1214 19.9265 25.7965 19.417 26.2888C19.4703 24.7863 19.8508 23.3763 20.3575 22.0007C20.5123 21.5803 20.5092 21.1494 20.0128 21.3216C18.7963 21.7436 17.3536 21.6078 16.4422 22.8467C15.8373 23.6686 15.2965 24.5064 14.9652 25.4714C14.778 26.0163 14.5699 27.0376 14.6132 27.795C14.6576 28.5707 15.3029 28.938 16.1281 28.4607C16.7376 28.1083 17.1588 27.54 17.6358 26.9056C17.9791 27.7977 18.42 28.1739 19.2213 27.6642C19.8087 27.2906 20.6644 26.1377 20.6644 26.1377C20.8518 26.9831 21.3585 27.2273 22.1692 26.7584C22.7787 26.406 23.1999 25.8378 23.6769 25.2033C24.0202 26.0955 24.4611 26.4718 25.2624 25.9619C25.7966 25.6221 26.9593 24.1284 27.5158 23.2117C28.065 22.3073 28.5663 21.3739 29.0903 20.4544C29.2954 21.435 29.362 23.3714 29.243 23.757C29.1381 24.097 28.8752 24.6435 28.0482 25.0428C27.4293 25.3414 28.2609 25.7203 28.2609 25.7203C28.8999 26.0079 30.5635 26.4795 31.0079 23.8701C31.0092 23.8623 31.1663 22.9817 30.9817 21.688C30.7505 20.0692 30.0092 18.7072 31.3963 17.187C30.2701 17.6036 29.2751 18.0878 28.8102 19.2558" fill="#7600FF"/>
<path fill-rule="evenodd" clip-rule="evenodd" d="M35.4515 19.178C35.3311 20.4474 35.0044 21.6612 34.4045 22.7894C34.2629 23.056 34.079 23.4354 33.7139 23.3132C33.3612 23.1952 33.4322 22.7996 33.456 22.4482C33.6679 21.2344 33.9676 20.0116 34.6328 18.912C34.7573 18.7064 34.9279 18.4419 35.1958 18.5377C35.4445 18.6265 35.4755 18.9248 35.4515 19.178M41.9997 15.4209C40.8311 15.8823 39.7703 16.3839 39.3151 17.6025C38.9692 18.5289 38.6273 20.838 35.9641 22.809C36.736 21.8436 36.9881 20.6374 37.1119 19.2398C37.2504 17.6757 36.361 17.0745 34.9199 17.7617C32.8748 18.7368 31.9694 20.482 31.8036 22.3916C31.7311 23.9456 32.441 24.439 33.3627 24.399C34.2847 24.3588 35.777 24.0234 37.9312 21.9236C38.7891 21.0874 39.1777 20.3506 39.5812 19.2984C39.7703 20.3526 40.0704 21.1144 39.9588 22.7462C39.8603 24.181 39.032 25.6711 35.5447 26.7631C26.1685 29.6993 26.8803 29.1369 17.2826 31.6304C15.2943 32.147 14.7509 32.7548 14.6074 34.8606C17.0619 34.2 27.9323 31.3355 35.9767 28.6729C41.1358 26.9655 41.554 25.3611 41.8245 23.7048C42.277 20.9328 39.8815 17.4609 41.9997 15.4209" fill="#7600FF"/>
</svg>
