<svg xmlns="http://www.w3.org/2000/svg" width="147" height="44" fill="none" viewBox="0 0 147 44">
    <path fill="#4035DE" d="M140.955 0v.656h-1.759v5.116h-.717V.656h-1.759V0h4.235zM144.358 3.603L146.081.01h.709V5.78h-.718V1.548l-1.408 3.026h-.648l-1.382-3v4.207h-.717V.009h.7l1.741 3.594zM35.282 34.913v8.755H0V0H35.282v12.349H20.716v3.35h14.566v15.873c-1.32-.087-2.66-.236-4.024-.463-5.8-.962-9.754-2.921-9.798-2.939l-1.505 2.982c.175.088 4.366 2.178 10.638 3.228 1.575.28 3.141.446 4.69.533zM59.314 15.7v-3.341h14.637V0H38.624v31.634c4.908-.14 9.536-1.295 13.814-3.455l1.514 2.982c-4.69 2.37-9.886 3.647-15.328 3.805v8.702h35.327v-27.97H59.314zM95.778 15.113v5.072H80.573V0h15.021v5.073h-8.398v2.842h7.558v4.137h-7.558v3.052h8.582v.009zM114.377 11.667v8.518h-4.68l-1.269-2.143h-.122c-.639 1.688-1.907 2.475-4.593 2.475-3.447 0-5.013-1.967-5.013-4.958s1.452-5.047 5.625-5.047c1.969 0 3.351.332 3.867.542h.088v-.848c0-1.242-.691-1.662-4.077-1.662-1.846 0-3.963.272-4.532.394l-.149-.149V4.381c1.243-.244 3.325-.48 5.381-.48 7.209 0 9.474 2.78 9.474 7.766zm-6.106 4.285v-2.178h-2.537c-.752 0-1.024.359-1.024.936v.752c0 .691.307 1.024 1.269 1.024h.306c.805.017 1.557-.228 1.986-.534zM129.442 14.99v5.134c-.516.123-2.388.394-3.989.394-5.136 0-6.675-2.3-6.675-6.437V9.428h-1.995V4.233h1.995v-2.93L122.889 0h2.118v4.233h4.348v5.195h-4.348v4.137c0 .997.306 1.39 1.749 1.39.91 0 1.995-.026 2.572-.087l.114.122zM90.24 23.211c2.45 0 4.47.245 5.407.394v4.775l-.123.122c-1.146-.087-3.176-.21-4.9-.21-3.236 0-3.805.394-3.805 1.304v.21c0 .69.21.97 2.24 1.268l2.388.393c3.535.516 5.38 2.24 5.38 5.563 0 4.53-2.082 6.917-10.244 6.917-3.08 0-5.345-.27-6.194-.42v-4.923l.123-.088c1.723.21 3.779.359 5.861.359 3.176 0 3.745-.394 3.745-1.452v-.245c0-.787-.184-1.084-2.809-1.478l-2.475-.393c-2.931-.42-4.716-2.02-4.716-5.467 0-4.18 2.327-6.629 10.122-6.629zM115.252 27.716v15.952h-4.803l-1.146-2.449h-.149c-.638 1.784-2.178 2.781-4.628 2.781-3.237 0-5.196-1.906-5.196-5.86V27.717h6.255v9.428c0 .935.42 1.241 1.513 1.241.788 0 1.479-.21 1.934-.48v-10.18h6.22v-.01zM129.442 27.715v5.834l-.184.184c-.359-.027-.691-.027-1.024-.027-1.574 0-2.843.149-3.779.359v9.612h-6.229V27.724h4.506L124 30.2h.123c.577-1.845 2.021-2.658 4.015-2.658.586-.01 1.094.087 1.304.174zM137.665 37.144v.664c0 1.268.604 1.75 3.596 1.75 2.414 0 4.295-.21 5.074-.36l.122.123v4.076c-1.058.27-3.263.603-5.835.603-6.981 0-9.037-2.746-9.037-8.22 0-5.8 2.782-8.397 8.311-8.397 4.716 0 7.104 2.143 7.104 6.498v3.263h-9.335zm0-3.569v.333h3.657v-1.085c0-.997-.306-1.39-1.601-1.39h-.21c-1.513 0-1.846.664-1.846 2.142z"/>
</svg>
