<svg width="110" height="96" viewBox="0 0 110 96" fill="none" xmlns="http://www.w3.org/2000/svg">
<path d="M66.1486 0H61.4608V4.68786H66.1486V0Z" fill="#4945be"/>
<path d="M61.4606 0H56.7728V4.68786H61.4606V0Z" fill="#4945be"/>
<path d="M56.7729 0H52.0851V4.68786H56.7729V0Z" fill="#4945be"/>
<path d="M80.2122 4.68799H75.5244V9.37585H80.2122V4.68799Z" fill="#4945be"/>
<path d="M75.5243 4.68799H70.8364V9.37585H75.5243V4.68799Z" fill="#4945be"/>
<path d="M70.8365 4.68799H66.1487V9.37585H70.8365V4.68799Z" fill="#4945be"/>
<path d="M52.1389 4.68799H47.451V9.37585H52.1389V4.68799Z" fill="#4945be"/>
<path d="M47.4509 4.68799H42.7631V9.37585H47.4509V4.68799Z" fill="#4945be"/>
<path d="M42.7632 4.68799H38.0754V9.37585H42.7632V4.68799Z" fill="#4945be"/>
<path d="M38.0753 9.37573H33.3874V14.0636H38.0753V9.37573Z" fill="#4945be"/>
<path d="M33.3876 9.37573H28.6997V14.0636H33.3876V9.37573Z" fill="#4945be"/>
<path d="M28.6996 9.37573H24.0117V14.0636H28.6996V9.37573Z" fill="#4945be"/>
<path d="M28.6939 28.1224V23.4346H24.006V28.1224H28.6939Z" fill="#4945be"/>
<path d="M28.6949 23.4354V18.7476H24.0071V23.4354H28.6949Z" fill="#4945be"/>
<path d="M28.6957 18.7487V14.0608H24.0079V18.7487H28.6957Z" fill="#4945be"/>
<path d="M28.6996 28.1272H24.0117V32.8151H28.6996V28.1272Z" fill="#4945be"/>
<path d="M28.6899 46.8697V42.1819H24.0021V46.8697H28.6899Z" fill="#4945be"/>
<path d="M28.691 42.183V37.4951H24.0032V42.183H28.691Z" fill="#4945be"/>
<path d="M28.6921 37.4962V32.8083H24.0042V37.4962H28.6921Z" fill="#4945be"/>
<path d="M28.6879 56.2435V51.5557H24V56.2435H28.6879Z" fill="#4945be"/>
<path d="M33.4819 60.9852V56.2974H28.794V60.9852H33.4819Z" fill="#4945be"/>
<path d="M38.1677 65.6732V60.9854H33.4799V65.6732H38.1677Z" fill="#4945be"/>
<path d="M42.8538 70.361V65.6731H38.166V70.361H42.8538Z" fill="#4945be"/>
<path d="M47.5397 75.0489V70.3611H42.8518V75.0489H47.5397Z" fill="#4945be"/>
<path d="M52.2256 79.7367V75.0488H47.5377V79.7367H52.2256Z" fill="#4945be"/>
<path d="M56.9125 79.7377V75.0498H52.2246V79.7377H56.9125Z" fill="#4945be"/>
<path d="M61.5994 79.7386V75.0508H56.9115V79.7386H61.5994Z" fill="#4945be"/>
<path d="M66.2863 79.7396V75.0518H61.5985V79.7396H66.2863Z" fill="#4945be"/>
<path d="M70.9734 79.7406V75.0527H66.2856V79.7406H70.9734Z" fill="#4945be"/>
<path d="M75.6612 75.0543V70.3665H70.9733V75.0543H75.6612Z" fill="#4945be"/>
<path d="M80.2413 70.4633V65.7754H75.5534V70.4633H80.2413Z" fill="#4945be"/>
<path d="M28.6889 51.5568V46.8689H24.001V51.5568H28.6889Z" fill="#4945be"/>
<path d="M94.2428 28.0956V23.4077H89.5549V28.0956H94.2428Z" fill="#4945be"/>
<path d="M94.2438 23.4086V18.7207H89.556V23.4086H94.2438Z" fill="#4945be"/>
<path d="M94.2449 18.7218V14.0339H89.5571V18.7218H94.2449Z" fill="#4945be"/>
<path d="M94.2219 28.1272H89.5341V32.8151H94.2219V28.1272Z" fill="#4945be"/>
<path d="M94.2389 46.8431V42.1553H89.551V46.8431H94.2389Z" fill="#4945be"/>
<path d="M94.2399 42.1564V37.4685H89.5521V42.1564H94.2399Z" fill="#4945be"/>
<path d="M94.241 37.4694V32.7815H89.5531V37.4694H94.241Z" fill="#4945be"/>
<path d="M94.2381 51.5299V46.842H89.5502V51.5299H94.2381Z" fill="#4945be"/>
<path d="M94.2219 9.37573H89.5341V14.0636H94.2219V9.37573Z" fill="#4945be"/>
<path d="M89.5879 9.37573H84.9V14.0636H89.5879V9.37573Z" fill="#4945be"/>
<path d="M84.8999 9.37573H80.212V14.0636H84.8999V9.37573Z" fill="#4945be"/>
<path d="M101.604 45.225L98.3384 42.0291L84.9293 55.4382L80.6218 51.1306L77.3563 54.396L81.6639 58.7036L84.9293 61.8995L88.1253 58.7036L101.604 45.225Z" fill="#53D300"/>
<path d="M101.604 59.4679L98.3384 56.272L84.9293 69.6811L80.6218 65.3735L77.3563 68.6389L81.6639 72.9465L84.9293 76.1425L88.1253 72.9465L101.604 59.4679Z" fill="#53D300"/>
<path d="M101.604 73.2938L98.3384 70.0283L84.9293 83.5069L80.6218 79.1993L77.3563 82.4648L81.6639 86.7029L84.9293 89.9683L88.1253 86.7029L101.604 73.2938Z" fill="#53D300"/>
<path d="M63.4832 32.8549V28.167H58.7953V32.8549H63.4832Z" fill="#4945be"/>
<path d="M63.5085 32.8691H58.8206V37.557H63.5085V32.8691Z" fill="#4945be"/>
<path d="M63.4849 51.6081L63.4849 29.1387H58.797L58.797 51.6081H63.4849Z" fill="#4945be"/>
<path d="M63.4802 46.9154V42.2275H58.7924V46.9154H63.4802Z" fill="#4945be"/>
<path d="M63.4813 42.2286V37.5408H58.7934V42.2286H63.4813Z" fill="#4945be"/>
<path d="M68.181 42.2012H72.8688V37.5133H68.181V42.2012Z" fill="#4945be"/>
<path d="M68.1678 42.2296V37.5417H63.48V42.2296H68.1678Z" fill="#4945be"/>
<path d="M49.4609 42.2012H70.5293V37.5133H49.4609V42.2012Z" fill="#4945be"/>
<path d="M54.1232 42.2012H58.8111V37.5133H54.1232V42.2012Z" fill="#4945be"/>
<path d="M58.8091 42.2012H63.4969V37.5133H58.8091V42.2012Z" fill="#4945be"/>
<rect opacity="0.1" y="91.8245" width="110" height="3.4737" fill="#4945be"/>
<rect opacity="0.1" x="14.0314" y="91.8245" width="16.8235" height="3.4737" transform="rotate(-90 14.0314 91.8245)" fill="#4945be"/>
<rect opacity="0.23" x="20.91" y="91.8245" width="4.52941" height="3.4737" transform="rotate(-90 20.91 91.8245)" fill="#4945be"/>
<rect opacity="0.4" x="97.3823" y="91.8245" width="4.52941" height="3.4737" transform="rotate(-90 97.3823 91.8245)" fill="#4945be"/>
<rect opacity="0.4" x="17.4701" y="87.2949" width="4.52941" height="3.4737" transform="rotate(-90 17.4701 87.2949)" fill="#4945be"/>
<rect opacity="0.06" x="17.4701" y="91.8245" width="4.52941" height="3.4737" transform="rotate(-90 17.4701 91.8245)" fill="#4945be"/>
<rect opacity="0.1" x="93.9423" y="91.8245" width="4.52941" height="3.4737" transform="rotate(-90 93.9423 91.8245)" fill="#4945be"/>
<rect opacity="0.2" x="97.3823" y="87.2949" width="4.52941" height="3.4737" transform="rotate(-90 97.3823 87.2949)" fill="#4945be"/>
<rect opacity="0.06" x="20.91" y="87.2949" width="12.2941" height="3.4737" transform="rotate(-90 20.91 87.2949)" fill="#4945be"/>
</svg>
