<svg xmlns="http://www.w3.org/2000/svg" width="129" height="84" fill="none" viewBox="0 0 129 84">
    <g clip-path="url(#clip0)">
        <path fill="#4945be" d="M43.887 0H39.59v4.333h4.296V0zM48.182 0h-4.295v4.333h4.295V0zM52.478 0h-4.296v4.333h4.296V0zM43.887 30.333H39.59v4.334h4.296v-4.334zM48.182 30.333h-4.295v4.334h4.295v-4.334zM48.182 34.667h-4.295V39h4.295v-4.333zM48.182 39h-4.295v4.333h4.295V39zM48.182 43.333h-4.295v4.334h4.295v-4.334zM52.478 56.333h-4.296v4.334h4.296v-4.334zM43.887 56.333H39.59v4.334h4.296v-4.334zM52.478 52h-4.296v4.333h4.296V52zM43.887 52H39.59v4.333h4.296V52zM48.182 47.667h-4.295V52h4.295v-4.333zM79.239 34.667h-4.296V39h4.296v-4.333zM79.239 39h-4.296v4.333h4.296V39zM79.239 43.333h-4.296v4.334h4.296v-4.334zM79.239 47.667h-4.296V52h4.296v-4.333zM43.887 60.667H39.59V65h4.296v-4.333z"/>
        <path fill="#53D300" d="M43.887 65H39.59v4.333h4.296V65zM43.887 69.333H39.59v4.334h4.296v-4.334z"/>
        <path fill="#4945be" d="M52.478 60.667h-4.296V65h4.296v-4.333z"/>
        <path fill="#53D300" d="M52.478 65h-4.296v4.333h4.296V65zM52.478 69.333h-4.296v4.334h4.296v-4.334z"/>
        <path fill="#4945be" d="M70.648 4.333h-4.296v4.334h4.296V4.333zM70.648 0h-4.296v4.333h4.296V0zM70.648 8.667h-4.296V13h4.296V8.667zM70.648 13h-4.296v4.333h4.296V13zM70.648 17.333h-4.296v4.334h4.296v-4.334zM74.943 26h-4.295v4.333h4.295V26zM79.239 4.333h-4.296v4.334h4.296V4.333zM79.239 8.667h-4.296V13h4.296V8.667zM79.239 13h-4.296v4.333h4.296V13zM79.239 17.333h-4.296v4.334h4.296v-4.334zM83.535 26h-4.296v4.333h4.296V26zM79.239 30.333h-4.296v4.334h4.296v-4.334zM87.83 4.333h-4.296v4.334h4.296V4.333zM87.83 0h-4.296v4.333h4.296V0zM87.83 8.667h-4.296V13h4.296V8.667zM87.83 13h-4.296v4.333h4.296V13zM87.83 17.333h-4.296v4.334h4.296v-4.334zM70.648 21.667h-4.296V26h4.296v-4.333zM79.239 21.667h-4.296V26h4.296v-4.333zM97.409 30.333h-4.296v4.334h4.296v-4.334zM97.409 34.667h-4.296V39h4.296v-4.333zM97.409 39h-4.296v4.333h4.296V39zM97.409 43.333h-4.296v4.334h4.296v-4.334zM97.409 0h-4.296v4.333h4.296V0z"/>
        <path fill="#4945be" d="M101.704 0h-4.295v4.333h4.295V0zM106 4.333h-4.296v4.334H106V4.333zM97.409 4.333h-4.296v4.334h4.296V4.333zM97.409 8.667h-4.296V13h4.296V8.667zM97.409 13h-4.296v4.333h4.296V13zM97.409 26h-4.296v4.333h4.296V26zM97.409 52h-4.296v4.333h4.296V52zM97.409 56.333h-4.296v4.334h4.296v-4.334zM97.409 60.667h-4.296V65h4.296v-4.333z"/>
        <path fill="#53D300" d="M97.409 65h-4.296v4.333h4.296V65zM97.409 69.333h-4.296v4.334h4.296v-4.334zM101.704 73.667h-4.295V78h4.295v-4.333z"/>
        <path fill="#4945be" d="M97.409 47.667h-4.296V52h4.296v-4.333zM97.409 17.333h-4.296v4.334h4.296v-4.334zM97.409 21.667h-4.296V26h4.296v-4.333zM106 30.333h-4.296v4.334H106v-4.334zM106 34.667h-4.296V39H106v-4.333zM106 39h-4.296v4.333H106V39zM101.704 39h-4.295v4.333h4.295V39zM106 8.667h-4.296V13H106V8.667zM106 13h-4.296v4.333H106V13zM106 26h-4.296v4.333H106V26zM106 17.333h-4.296v4.334H106v-4.334zM106 21.667h-4.296V26H106v-4.333zM87.83 21.667h-4.296V26h4.296v-4.333z"/>
        <path fill="#53D300" d="M48.182 73.667h-4.295V78h4.295v-4.333z"/>
        <path fill="#4945be" d="M83.535 56.333h-4.296v4.334h4.296v-4.334zM74.943 56.333h-4.295v4.334h4.295v-4.334zM83.535 52h-4.296v4.333h4.296V52zM74.943 52h-4.295v4.333h4.295V52zM74.943 60.667h-4.295V65h4.295v-4.333z"/>
        <path fill="#53D300" d="M74.943 65h-4.295v4.333h4.295V65zM74.943 69.333h-4.295v4.334h4.295v-4.334z"/>
        <path fill="#4945be" d="M83.535 60.667h-4.296V65h4.296v-4.333z"/>
        <path fill="#53D300" d="M83.535 65h-4.296v4.333h4.296V65zM83.535 69.333h-4.296v4.334h4.296v-4.334z"/>
        <path fill="#4945be" d="M106 56.333h-4.296v4.334H106v-4.334zM106 52h-4.296v4.333H106V52zM101.704 47.667h-4.295V52h4.295v-4.333zM106 60.667h-4.296V65H106v-4.333z"/>
        <path fill="#53D300" d="M106 65h-4.296v4.333H106V65zM106 69.333h-4.296v4.334H106v-4.334zM79.239 73.667h-4.296V78h4.296v-4.333z"/>
        <path fill="#4945be" d="M52.478 30.333h-4.296v4.334h4.296v-4.334zM56.773 4.333h-4.295v4.334h4.295V4.333zM61.07 8.667h-4.297V13h4.296V8.667zM61.07 13h-4.297v4.333h4.296V13zM61.07 17.333h-4.297v4.334h4.296v-4.334zM61.07 21.667h-4.297V26h4.296v-4.333zM35.296 21.667H31V26h4.296v-4.333zM39.591 4.333h-4.295v4.334h4.295V4.333zM35.296 8.667H31V13h4.296V8.667zM35.296 13H31v4.333h4.296V13zM35.296 17.333H31v4.334h4.296v-4.334zM56.773 26h-4.295v4.333h4.295V26zM39.591 26h-4.295v4.333h4.295V26z"/>
    </g>
    <path fill="#4945be" d="M0 79.823H129V83.297H0z" opacity=".1"/>
    <path fill="#4945be" d="M6.455 79.824H13.279V83.898H6.455z" opacity=".1" transform="rotate(-90 6.455 79.824)"/>
    <path fill="#4945be" d="M14.522 79.824H15.522V83.898H14.522z" opacity=".23" transform="rotate(-90 14.522 79.824)"/>
    <path fill="#4945be" d="M114.203 79.824H118.732V83.898H114.203z" opacity=".4" transform="rotate(-90 114.203 79.824)"/>
    <path fill="#4945be" d="M10.488 75.295H11.488V79.369H10.488z" opacity=".4" transform="rotate(-90 10.488 75.295)"/>
    <path fill="#4945be" d="M10.488 79.824H15.017V83.898H10.488z" opacity=".06" transform="rotate(-90 10.488 79.824)"/>
    <path fill="#4945be" d="M110.169 79.824H114.698V83.898H110.169z" opacity=".1" transform="rotate(-90 110.169 79.824)"/>
    <path fill="#4945be" d="M114.203 75.295H118.732V79.369H114.203z" opacity=".2" transform="rotate(-90 114.203 75.295)"/>
    <path fill="#4945be" d="M14.522 75.295H16.816V79.369H14.522z" opacity=".06" transform="rotate(-90 14.522 75.295)"/>
    <defs>
        <clipPath id="clip0">
            <path fill="#4945be" d="M0 0H75V78H0z" transform="translate(31)"/>
        </clipPath>
    </defs>
</svg>
