<svg xmlns="http://www.w3.org/2000/svg" width="129" height="98" fill="none" viewBox="0 0 129 98">
    <g clip-path="url(#clip0)">
        <path fill="#4945be" d="M47.906 70.047v-5.37h-5.418v5.37h5.418zm-5.359-5.37v-5.43h-5.359v5.43h5.36zm-5.418-5.37v-5.37h-5.36v5.37h5.36zM69.402 26.91h-5.36v5.43h5.36v-5.43zm5.418-5.37h-5.359v5.37h5.359v-5.37zm5.359-5.37H74.82v5.43h5.359v-5.43zm5.359-5.37h-5.359v5.37h5.359V10.8zm5.419-5.43h-5.36v5.43h5.36V5.37zM96.315 0h-5.358v5.37h5.358V0zm0 5.37v5.43h5.359V5.37h-5.359zm-5.358 10.8h5.358V10.8h-5.358v5.37zm-5.419 48.507h5.359v-5.43h-5.359v5.43zm0-43.138h5.359v-5.43h-5.359v5.43zm-5.359 48.508h5.359v-5.37h-5.359v5.37zm0-43.138h5.359v-5.37h-5.359v5.37zM74.82 75.477h5.359v-5.43H74.82v5.43zm0-43.138h5.359v-5.43H74.82v5.43zm-5.418 5.37h-5.36v-5.37h-5.358v5.37h-43.05v21.539h5.358v-16.11h5.36v10.8h5.358v-10.8h59.187v16.17h5.359v-21.6H74.82v-5.37h-5.359v5.37h-.06zM37.128 91.645H74.76v-16.17H37.13v16.17zm5.418-10.8h26.914v5.43H42.547v-5.43zM31.77 70.048v5.43h5.359v-5.43h-5.36zm-5.36-5.37v5.37h5.36v-5.37h-5.36zm-5.418-5.37v5.43h5.36v-5.43h-5.36z"/>
        <path fill="#77D74D" d="M58.326 13.484C45.108 23.33 42.37 42.004 52.193 55.25c9.825 13.246 28.462 15.99 41.681 6.146 13.219-9.845 15.958-28.52 6.133-41.766-9.825-13.246-28.462-15.99-41.68-6.146zm31.916 42.96c-10.48 7.816-25.306 5.668-33.107-4.893-7.8-10.501-5.656-25.358 4.883-33.174 10.48-7.816 25.306-5.668 33.106 4.892 7.801 10.502 5.598 25.358-4.882 33.174z"/>
        <path fill="#77D74D" d="M97.127 58.527c11.626-11.65 11.626-30.539 0-42.19-11.627-11.65-30.477-11.65-42.104 0-11.626 11.651-11.626 30.54 0 42.19 11.627 11.65 30.477 11.65 42.104 0z" opacity=".2"/>
        <path fill="#77D74D" d="M112.511 86.455c-1.667 1.253-3.989.895-5.18-.775l-17.03-22.912c-1.25-1.67-.893-3.998.775-5.19 1.667-1.254 3.989-.896 5.18.775l17.029 22.911c1.251 1.67.894 3.998-.774 5.191z"/>
    </g>
    <path fill="#4945be" d="M0 93.823H129V97.297H0z" opacity=".1"/>
    <path fill="#4945be" d="M6.455 93.824H13.279V97.898H6.455z" opacity=".1" transform="rotate(-90 6.455 93.824)"/>
    <path fill="#4945be" d="M14.522 93.824H15.522V97.898H14.522z" opacity=".23" transform="rotate(-90 14.522 93.824)"/>
    <path fill="#4945be" d="M114.203 93.824H118.732V97.898H114.203z" opacity=".4" transform="rotate(-90 114.203 93.824)"/>
    <path fill="#4945be" d="M10.488 89.295H11.488V93.369H10.488z" opacity=".4" transform="rotate(-90 10.488 89.295)"/>
    <path fill="#4945be" d="M10.488 93.824H15.017V97.898H10.488z" opacity=".06" transform="rotate(-90 10.488 93.824)"/>
    <path fill="#4945be" d="M110.169 93.824H114.698V97.898H110.169z" opacity=".1" transform="rotate(-90 110.169 93.824)"/>
    <path fill="#4945be" d="M114.203 89.295H118.732V93.369H114.203z" opacity=".2" transform="rotate(-90 114.203 89.295)"/>
    <path fill="#4945be" d="M14.522 89.295H16.816V93.369H14.522z" opacity=".06" transform="rotate(-90 14.522 89.295)"/>
    <defs>
        <clipPath id="clip0">
            <path fill="#4945be" d="M0 0H98.367V91.646H0z" transform="translate(15.633)"/>
        </clipPath>
    </defs>
</svg>
