<svg xmlns="http://www.w3.org/2000/svg" width="110" height="101" fill="none" viewBox="0 0 110 101">
    <g clip-path="url(#clip0)">
        <path fill="#4945be" d="M49.348.041H43.79v5.558h5.558V.041zM49.348 5.6H43.79v5.557h5.558V5.6zM49.348 11.157H43.79v5.558h5.558v-5.558zM49.348 16.715H43.79v5.558h5.558v-5.558zM67.875 19.462H49.348v5.558h18.527v-5.558z"/>
        <path fill="#4945be" d="M60.72 19.462h-5.558v5.558h5.558v-5.558zM66.47 19.462h-5.558v5.558h5.558v-5.558zM49.348 22.273H43.79v5.558h5.558v-5.558z"/>
        <path fill="#4945be" d="M49.348 27.831H43.79v5.558h5.558v-5.558zM49.348 33.39H43.79v5.557h5.558V33.39zM49.348 38.947H43.79v5.559h5.558v-5.559zM72.411.041h-5.558v5.558h5.558V.041z"/>
        <path fill="#4945be" d="M77.97.041H72.41v5.558h5.558V.041zM43.79.041h-5.558v5.558h5.558V.041zM72.411 5.6h-5.558v5.557h5.558V5.6zM72.411 11.157h-5.558v5.558h5.558v-5.558zM72.411 16.715h-5.558v5.558h5.558v-5.558zM72.411 22.273h-5.558v5.558h5.558v-5.558z"/>
        <path fill="#4945be" d="M72.411 27.831h-5.558v5.558h5.558v-5.558zM72.411 33.39h-5.558v5.557h5.558V33.39zM72.411 38.947h-5.558v5.559h5.558v-5.559zM43.854 44.505h-5.558v5.558h5.558v-5.558z"/>
        <path fill="#4945be" d="M77.97 44.505H72.41v5.558h5.558v-5.558zM38.296 50.063h-5.558v5.558h5.558v-5.558zM83.527 50.063H77.97v5.558h5.558v-5.558zM32.674 55.622h-5.558v5.558h5.558v-5.558zM89.085 55.622h-5.558v5.558h5.558v-5.558zM27.116 61.18h-5.558v5.558h5.558V61.18zM21.558 66.738H16v5.558h5.558v-5.558zM21.558 72.296H16v5.558h5.558v-5.558zM27.116 77.854h-5.558v5.558h5.558v-5.558zM35.485 83.412h-8.369v5.558h8.37v-5.558z"/>
        <path fill="#4945be" d="M38.296 83.412h-5.558v5.558h5.558v-5.558zM73.753 88.97H38.296v5.558h35.457V88.97z"/>
        <path fill="#4945be" d="M49.476 88.97h-5.558v5.558h5.558V88.97zM55.098 88.97H49.54v5.558h5.558V88.97zM60.784 88.97h-5.558v5.558h5.558V88.97zM66.406 88.97h-5.558v5.558h5.558V88.97zM72.028 88.97H66.47v5.558h5.558V88.97z"/>
        <path fill="#53D300" d="M69.728 65.716c-7.602 7.602-7.602 19.996 0 27.598s19.996 7.602 27.599 0c7.602-7.602 7.602-19.996 0-27.598-7.603-7.603-19.997-7.603-27.6 0zm4.025 4.088c4.472-4.472 11.371-5.239 16.61-2.172L71.581 86.414c-3.003-5.238-2.3-12.138 2.172-16.61zm19.485 19.421c-4.856 4.856-12.394 5.303-17.76 1.406l19.165-19.166c3.897 5.367 3.386 12.969-1.405 17.76z"/>
    </g>
    <path fill="#4945be" d="M0 96.825H110V100.299H0z" opacity=".1"/>
    <path fill="#4945be" d="M14.031 96.825H30.854V100.299H14.031z" opacity=".1" transform="rotate(-90 14.031 96.825)"/>
    <path fill="#4945be" d="M20.91 96.825H25.439V100.299H20.91z" opacity=".23" transform="rotate(-90 20.91 96.825)"/>
    <path fill="#4945be" d="M97.382 96.825H101.911V100.299H97.382z" opacity=".4" transform="rotate(-90 97.382 96.825)"/>
    <path fill="#4945be" d="M17.47 92.295H21.999V95.769H17.47z" opacity=".4" transform="rotate(-90 17.47 92.295)"/>
    <path fill="#4945be" d="M17.47 96.825H21.999V100.299H17.47z" opacity=".06" transform="rotate(-90 17.47 96.825)"/>
    <path fill="#4945be" d="M93.942 96.825H98.47099999999999V100.299H93.942z" opacity=".1" transform="rotate(-90 93.942 96.825)"/>
    <path fill="#4945be" d="M97.382 92.295H101.911V95.769H97.382z" opacity=".2" transform="rotate(-90 97.382 92.295)"/>
    <path fill="#4945be" d="M20.91 92.295H33.204V95.769H20.91z" opacity=".06" transform="rotate(-90 20.91 92.295)"/>
    <defs>
        <clipPath id="clip0">
            <path fill="#4945be" d="M0 0H87.012V98.959H0z" transform="translate(16 .041)"/>
        </clipPath>
    </defs>
</svg>
