<svg xmlns="http://www.w3.org/2000/svg" width="129" height="91" fill="none" viewBox="0 0 129 91">
    <g clip-path="url(#clip0)">
        <path fill="#4945be" d="M92.117 0h-67.1v6.113h67.1V0zM22.63 0h-6.114v6.113h6.113V0zM22.63 6.113h-6.114v6.112h6.113V6.114z"/>
        <path fill="#4945be" d="M22.63 12.225h-6.114v6.113h6.113v-6.113zM22.63 18.338h-6.114v6.113h6.113v-6.113zM31.13 18.338h-6.112v6.113h6.113v-6.113zM37.243 18.338h-6.112v6.113h6.112v-6.113zM43.356 18.338h-6.113v6.113h6.113v-6.113zM49.469 24.45h-6.113v6.114h6.113V24.45zM55.582 24.45h-6.113v6.114h6.113V24.45zM61.694 24.45h-6.112v6.114h6.112V24.45zM79.962 30.564H73.85v6.112h6.112v-6.112zM67.807 30.564h-6.113v6.112h6.113v-6.112z"/>
        <path fill="#4945be" d="M73.92 30.564h-6.113v6.112h6.113v-6.112zM98.16 6.183h-6.113v6.113h6.113V6.183zM104.343 0H98.23v6.113h6.113V0zM110.456 6.113h-6.113v6.112h6.113V6.114zM104.273 12.296H98.16v6.112h6.113v-6.112zM110.386 18.408h-6.113v6.113h6.113v-6.113z"/>
        <path fill="#4945be" d="M110.386 24.45h-6.113v6.114h6.113V24.45zM110.386 30.564h-6.113v6.112h6.113v-6.112zM110.386 36.747h-6.113v6.112h6.113v-6.112zM110.386 43h-6.113v6.113h6.113V43z"/>
        <path fill="#4945be" d="M110.386 49.042h-6.113v6.113h6.113v-6.113zM110.386 55.155h-6.113v6.113h6.113v-6.113zM110.386 61.338h-6.113v6.113h6.113v-6.113zM110.386 67.592h-6.113v6.112h6.113v-6.112z"/>
        <path fill="#4945be" d="M110.386 33.585h-6.113v46.302h6.113V33.585zM86.075 36.676h-6.113v6.113h6.113v-6.113zM86.075 42.93h-6.113v6.112h6.113V42.93zM86.075 49.113h-6.113v6.112h6.113v-6.112z"/>
        <path fill="#4945be" d="M86.075 55.155h-6.113v6.113h6.113v-6.113zM86.075 61.268h-6.113v6.113h6.113v-6.113zM86.075 67.45h-6.113v6.114h6.113V67.45z"/>
        <path fill="#4945be" d="M86.075 39.838h-6.113v39.979h6.113V39.838zM95.069 79.887h-8.994V86h8.994v-6.113z"/>
        <path fill="#4945be" d="M98.582 79.887h-6.113V86h6.113v-6.113z"/>
        <path fill="#4945be" d="M104.273 79.887H98.16V86h6.113v-6.113z"/>
        <path fill="#53D300" d="M14.127 1.194c0-.562-.491-.983-1.054-.913-6.042.562-10.75 5.762-10.75 12.015 0 6.253 4.708 11.452 10.75 12.015.563.07 1.054-.352 1.054-.914V1.195z"/>
    </g>
    <path fill="#4945be" d="M0 86.823H129V90.297H0z" opacity=".1"/>
    <path fill="#4945be" d="M6.455 86.824H13.279V90.898H6.455z" opacity=".1" transform="rotate(-90 6.455 86.824)"/>
    <path fill="#4945be" d="M14.522 86.824H15.522V90.898H14.522z" opacity=".23" transform="rotate(-90 14.522 86.824)"/>
    <path fill="#4945be" d="M114.203 86.824H118.732V90.898H114.203z" opacity=".4" transform="rotate(-90 114.203 86.824)"/>
    <path fill="#4945be" d="M10.488 82.295H11.488V86.369H10.488z" opacity=".4" transform="rotate(-90 10.488 82.295)"/>
    <path fill="#4945be" d="M10.488 86.824H15.017V90.898H10.488z" opacity=".06" transform="rotate(-90 10.488 86.824)"/>
    <path fill="#4945be" d="M110.169 86.824H114.698V90.898H110.169z" opacity=".1" transform="rotate(-90 110.169 86.824)"/>
    <path fill="#4945be" d="M114.203 82.295H118.732V86.369H114.203z" opacity=".2" transform="rotate(-90 114.203 82.295)"/>
    <path fill="#4945be" d="M14.522 82.295H16.816V86.369H14.522z" opacity=".06" transform="rotate(-90 14.522 82.295)"/>
    <defs>
        <clipPath id="clip0">
            <path fill="#4945be" d="M0 0H108.132V86H0z" transform="translate(2.323)"/>
        </clipPath>
    </defs>
</svg>
